<svg id="Layer_1" enable-background="new 0 0 512 512" height="512" viewBox="0 0 512 512" width="512" xmlns="http://www.w3.org/2000/svg"><g><path d="m511.902 126.274c-.597-5.51-4.02-10.385-9.135-12.773l-240-112c-4.29-2.001-9.244-2-13.533 0l-240 112c-5.114 2.387-8.536 7.26-9.135 12.768-.013.115-.099 1.647-.099 1.731v272c0 6.542 3.983 12.426 10.058 14.855l240 96c1.908.763 3.925 1.145 5.942 1.145s4.034-.381 5.941-1.144l65.032-26.007c19.623 16.912 45.151 27.151 73.027 27.151 61.757 0 112-50.243 112-112v-272c0-.08-.087-1.616-.098-1.726zm-255.902-92.618 199.743 93.214-76.913 30.765-203.503-86.332zm-16 438.711-208-83.2v-237.535l208 83.2zm16-265.6-199.744-79.897 80.053-37.358 200.346 84.993zm144 273.233c-44.112 0-80-35.888-80-80s35.888-80 80-80 80 35.888 80 80-35.888 80-80 80zm0-192c-61.757 0-112 50.243-112 112 0 21.716 6.219 42.003 16.96 59.188l-32.96 13.181v-237.537l208-83.2v170.07c-20.344-20.782-48.689-33.702-80-33.702z"/><path d="m422.627 400 12.686-12.686c6.249-6.249 6.249-16.379 0-22.628-6.248-6.248-16.379-6.248-22.627 0l-12.686 12.686-12.687-12.687c-6.248-6.248-16.379-6.248-22.627 0-6.249 6.249-6.249 16.379 0 22.628l12.687 12.687-12.686 12.686c-6.249 6.249-6.249 16.379 0 22.628 3.124 3.124 7.218 4.686 11.313 4.686s8.189-1.562 11.313-4.686l12.687-12.687 12.687 12.687c3.124 3.124 7.218 4.686 11.313 4.686s8.189-1.562 11.313-4.686c6.249-6.249 6.249-16.379 0-22.628z"/></g></svg>